<?xml version="1.0" encoding="UTF-8"?>
<!DOCTYPE svg PUBLIC "-//W3C//DTD SVG 1.1//EN" "http://www.w3.org/Graphics/SVG/1.1/DTD/svg11.dtd">
<svg xmlns="http://www.w3.org/2000/svg" version="1.1" width="476px" height="476px" style="shape-rendering:geometricPrecision; text-rendering:geometricPrecision; image-rendering:optimizeQuality; fill-rule:evenodd; clip-rule:evenodd" xmlns:xlink="http://www.w3.org/1999/xlink">
<g><path style="opacity:0.078" fill="#757879" d="M 276.5,79.5 C 274.089,79.8633 272.589,78.8633 272,76.5C 269.539,66.5292 267.206,56.5292 265,46.5C 262.59,41.2875 258.424,38.9542 252.5,39.5C 242.007,40.7175 231.673,40.7175 221.5,39.5C 227.825,38.8337 234.325,38.5004 241,38.5C 248.267,38.3676 255.434,38.8676 262.5,40C 264.049,41.214 265.215,42.714 266,44.5C 268.46,54.4658 270.793,64.4658 273,74.5C 273.257,76.9065 274.424,78.5732 276.5,79.5 Z"/></g>
<g><path style="opacity:0.141" fill="#a5a8a9" d="M 202.5,39.5 C 200.882,41.785 198.882,43.785 196.5,45.5C 196.795,41.8715 198.795,39.8715 202.5,39.5 Z"/></g>
<g><path style="opacity:0.008" fill="#9a9a9c" d="M 194.5,55.5 C 194.536,58.461 193.536,60.7943 191.5,62.5C 191.887,59.7939 192.887,57.4605 194.5,55.5 Z"/></g>
<g><path style="opacity:0.012" fill="#8f9293" d="M 191.5,63.5 C 192.171,68.076 191.671,72.7427 190,77.5C 188.951,79.1066 187.451,79.7733 185.5,79.5C 187.144,78.6836 188.31,77.3502 189,75.5C 190.028,71.5272 190.861,67.5272 191.5,63.5 Z"/></g>
<g><path style="opacity:0.035" fill="#b5b6b8" d="M 342.5,67.5 C 344.593,68.0447 346.593,68.878 348.5,70C 361.5,81.6667 374.5,93.3333 387.5,105C 389.464,106.451 390.797,108.284 391.5,110.5C 375.438,95.7654 359.104,81.432 342.5,67.5 Z"/></g>
<g><path style="opacity:0.059" fill="#b9babc" d="M 123.5,67.5 C 124.922,67.7086 126.255,68.2086 127.5,69C 136.013,76.4134 144.68,83.5801 153.5,90.5C 152.279,91.4646 150.946,91.298 149.5,90C 140.641,82.635 131.974,75.135 123.5,67.5 Z"/></g>
<g><path style="opacity:0.643" fill="#787b7e" d="M 170.5,84.5 C 170.423,85.7498 169.756,86.5831 168.5,87C 165.49,88.5321 162.49,89.0321 159.5,88.5C 162.939,86.7957 166.605,85.4624 170.5,84.5 Z"/></g>
<g><path style="opacity:0.408" fill="#8a8a8c" d="M 159.5,88.5 C 159.5,89.8333 158.833,90.5 157.5,90.5C 156.5,90.5 155.5,90.5 154.5,90.5C 155.78,89.0687 157.447,88.4021 159.5,88.5 Z"/></g>
<g><path style="opacity:0.086" fill="#b0b1b2" d="M 116.5,67.5 C 101.749,83.2524 86.416,98.2524 70.5,112.5C 72.1585,108.328 74.8252,104.828 78.5,102C 90.7581,89.9018 103.425,78.4018 116.5,67.5 Z"/></g>
<g><path style="opacity:1" fill="#2f3940" d="M 202.5,39.5 C 208.833,39.5 215.167,39.5 221.5,39.5C 231.673,40.7175 242.007,40.7175 252.5,39.5C 258.424,38.9542 262.59,41.2875 265,46.5C 267.206,56.5292 269.539,66.5292 272,76.5C 272.589,78.8633 274.089,79.8633 276.5,79.5C 280.965,80.4328 285.298,81.7661 289.5,83.5C 289.577,84.7498 290.244,85.5831 291.5,86C 297.833,88.5 304.167,91 310.5,93.5C 311.107,93.3764 311.44,93.0431 311.5,92.5C 320.583,84.6203 329.25,76.287 337.5,67.5C 339.167,67.5 340.833,67.5 342.5,67.5C 359.104,81.432 375.438,95.7654 391.5,110.5C 392.641,113.64 392.808,116.973 392,120.5C 391.303,122.584 390.136,124.251 388.5,125.5C 386.567,126.642 385.067,128.308 384,130.5C 380.695,136.128 377.862,141.962 375.5,148C 380.466,158.767 385.799,169.267 391.5,179.5C 391.286,181.144 391.62,182.644 392.5,184C 399.305,185.329 406.139,186.495 413,187.5C 414.385,187.486 415.551,187.152 416.5,186.5C 416.833,186.5 417.167,186.5 417.5,186.5C 417.5,187.5 417.5,188.5 417.5,189.5C 409.156,188.483 400.822,187.317 392.5,186C 390.623,183.749 389.123,181.249 388,178.5C 387.51,179.793 387.343,181.127 387.5,182.5C 385.488,181.986 383.488,181.82 381.5,182C 382.578,182.674 383.245,183.674 383.5,185C 382.946,186.551 382.28,188.051 381.5,189.5C 381.667,190.167 381.833,190.833 382,191.5C 383.572,187.475 384.739,187.642 385.5,192C 387.167,192.333 388.833,192.667 390.5,193C 391.731,194.183 391.731,195.349 390.5,196.5C 389.572,194.665 388.406,194.332 387,195.5C 385.915,194.707 384.748,194.04 383.5,193.5C 381.894,195.512 380.727,197.845 380,200.5C 378.407,202.285 376.907,202.452 375.5,201C 376.687,199.981 377.687,198.814 378.5,197.5C 378.154,196.304 377.654,196.304 377,197.5C 376.667,196.5 376.333,195.5 376,194.5C 375.333,195.833 374.667,195.833 374,194.5C 373.689,195.742 374.189,196.742 375.5,197.5C 375.167,197.833 374.833,198.167 374.5,198.5C 373.38,197.167 372.047,196.667 370.5,197C 371.554,198.388 371.72,199.888 371,201.5C 369.829,200.107 368.329,199.273 366.5,199C 367.696,198.346 367.696,197.846 366.5,197.5C 365.171,200.695 363.505,201.028 361.5,198.5C 360.803,200.385 359.803,200.718 358.5,199.5C 357.289,200.274 357.289,201.107 358.5,202C 354.774,203.043 355.107,203.543 359.5,203.5C 359.719,204.675 359.386,205.675 358.5,206.5C 357.672,205.585 356.672,204.919 355.5,204.5C 352.374,207.601 350.041,207.101 348.5,203C 348.82,201.347 349.82,200.347 351.5,200C 350.692,199.692 350.025,199.192 349.5,198.5C 350.5,197.833 351.5,197.167 352.5,196.5C 351.902,195.205 351.402,193.872 351,192.5C 348.177,197.666 346.344,197.666 345.5,192.5C 350.583,188.112 355.916,183.945 361.5,180C 362.059,179.275 362.392,178.442 362.5,177.5C 348.602,155.46 328.436,144.46 302,144.5C 268.735,146.641 247.068,163.641 237,195.5C 235.656,206.118 235.156,216.784 235.5,227.5C 234.669,240.327 234.169,253.327 234,266.5C 233.88,260.706 233.046,255.04 231.5,249.5C 232.585,246.227 232.752,242.894 232,239.5C 229.853,240.113 227.686,240.779 225.5,241.5C 226.811,242.258 227.311,243.258 227,244.5C 225.701,244.034 224.201,244.034 222.5,244.5C 223.092,241.873 223.425,239.206 223.5,236.5C 225.527,236.338 227.527,236.505 229.5,237C 228.044,237.423 227.544,238.256 228,239.5C 229.699,238.594 231.533,238.261 233.5,238.5C 233.5,231.5 233.5,224.5 233.5,217.5C 230.477,217.105 229.477,218.105 230.5,220.5C 228.892,221.318 227.225,221.985 225.5,222.5C 224.866,224.567 223.866,226.4 222.5,228C 224.199,228.393 225.699,227.893 227,226.5C 227.5,226.833 228,227.167 228.5,227.5C 227.687,228.814 226.687,229.981 225.5,231C 226.833,231.667 227.833,232.667 228.5,234C 225.142,234.05 221.808,234.884 218.5,236.5C 218.5,235.5 218.5,234.5 218.5,233.5C 220.604,233.799 222.604,233.466 224.5,232.5C 224.081,231.328 223.415,230.328 222.5,229.5C 220.997,230.052 219.331,230.052 217.5,229.5C 216.715,244.468 216.215,259.468 216,274.5C 215.833,231.331 215.333,188.331 214.5,145.5C 203.012,144.505 191.345,144.172 179.5,144.5C 178.957,144.44 178.624,144.107 178.5,143.5C 190.152,142.667 201.819,142.167 213.5,142C 212.483,140.951 212.316,139.784 213,138.5C 215.737,139.61 218.571,139.777 221.5,139C 222.5,138 223.5,137 224.5,136C 223.428,134.716 222.095,134.383 220.5,135C 219.929,133.795 219.262,132.628 218.5,131.5C 217.742,132.811 216.742,133.311 215.5,133C 214.91,131.491 214.244,129.991 213.5,128.5C 210.863,130.182 208.196,131.015 205.5,131C 206.308,131.308 206.975,131.808 207.5,132.5C 206.503,134.811 206.003,137.144 206,139.5C 207.422,139.594 208.922,139.928 210.5,140.5C 204.833,141.833 199.167,141.833 193.5,140.5C 195.167,139.833 196.833,139.167 198.5,138.5C 195.333,137.999 192.999,136.333 191.5,133.5C 189.577,132.692 187.577,132.192 185.5,132C 187.303,126.119 184.969,123.452 178.5,124C 179.167,123.667 179.833,123.333 180.5,123C 178.099,122.205 175.932,121.038 174,119.5C 171.827,121.64 169.327,121.974 166.5,120.5C 166.976,122.993 168.31,124.993 170.5,126.5C 166.689,127.738 166.689,128.404 170.5,128.5C 170.766,132.079 172.099,132.413 174.5,129.5C 175.711,130.274 175.711,131.107 174.5,132C 177.825,131.775 180.158,133.108 181.5,136C 178.89,136.147 176.556,136.981 174.5,138.5C 173.522,138.023 172.689,137.357 172,136.5C 168.039,140.744 168.872,143.578 174.5,145C 171.833,145.333 169.167,145.667 166.5,146C 167.741,147.487 167.241,148.32 165,148.5C 161.896,148.149 162.063,147.649 165.5,147C 157.794,146.932 157.794,145.932 165.5,144C 163.939,143.059 162.605,141.892 161.5,140.5C 161.5,138.833 161.5,137.167 161.5,135.5C 158.874,133.807 156.207,132.974 153.5,133C 154.667,132.5 155.5,131.667 156,130.5C 159.912,133.471 160.745,133.138 158.5,129.5C 156.095,127.67 153.595,127.003 151,127.5C 149.337,129.158 148.504,131.158 148.5,133.5C 146.54,134.138 144.707,134.138 143,133.5C 141.343,136.089 141.009,138.756 142,141.5C 140.667,139.5 139.333,137.5 138,135.5C 137.71,137.044 137.044,138.377 136,139.5C 136.195,137.874 136.195,136.207 136,134.5C 134.697,133.888 133.53,133.554 132.5,133.5C 133.167,132.833 133.833,132.167 134.5,131.5C 134.167,131.167 133.833,130.833 133.5,130.5C 132.264,131.246 130.93,131.579 129.5,131.5C 129.5,130.167 129.5,128.833 129.5,127.5C 131.689,127.207 133.689,126.707 135.5,126C 134.655,127.558 135.321,128.558 137.5,129C 136.833,129.667 136.167,130.333 135.5,131C 137.329,131.273 138.829,132.107 140,133.5C 142.501,133.05 144.667,132.05 146.5,130.5C 144.836,129.777 143.169,130.11 141.5,131.5C 140.354,130.855 139.354,130.022 138.5,129C 140.329,128.727 141.829,127.893 143,126.5C 144.337,128.004 146.004,129.004 148,129.5C 148.49,128.207 148.657,126.873 148.5,125.5C 150.973,124.691 153.306,124.358 155.5,124.5C 151.698,123.903 148.032,122.903 144.5,121.5C 143.833,121.833 143.167,122.167 142.5,122.5C 139.456,121.096 136.456,119.596 133.5,118C 135.044,116.813 136.711,116.48 138.5,117C 138.043,117.414 137.709,117.914 137.5,118.5C 139.421,119.641 141.421,119.808 143.5,119C 142.112,118.111 142.278,117.611 144,117.5C 145.399,119.615 147.232,121.281 149.5,122.5C 150.354,121.478 151.354,120.645 152.5,120C 149.812,119.218 148.812,117.718 149.5,115.5C 150.829,118.695 152.495,119.028 154.5,116.5C 157.465,118.627 157.131,119.794 153.5,120C 156.167,121 158.833,122 161.5,123C 160.833,123.333 160.167,123.667 159.5,124C 160.766,124.309 161.933,124.809 163,125.5C 163.318,123.939 164.151,122.772 165.5,122C 164.833,121.667 164.167,121.333 163.5,121C 164.618,119.926 165.618,118.76 166.5,117.5C 167.216,118.311 168.05,118.978 169,119.5C 170.811,118.922 172.645,118.422 174.5,118C 173.304,117.346 173.304,116.846 174.5,116.5C 176.84,116.514 179.174,116.514 181.5,116.5C 179.483,115.47 177.483,114.47 175.5,113.5C 174.214,113.852 173.381,114.518 173,115.5C 171.354,113.859 170.354,114.193 170,116.5C 168.693,115.228 167.193,114.228 165.5,113.5C 164.754,112.264 164.421,110.93 164.5,109.5C 162.856,109.286 161.356,109.62 160,110.5C 159.309,108.109 158.309,108.109 157,110.5C 156.5,110 156,109.5 155.5,109C 156.576,107.274 156.743,105.441 156,103.5C 155.086,104.654 154.253,104.487 153.5,103C 155.883,102.935 156.55,102.102 155.5,100.5C 157.078,99.7022 158.744,99.2022 160.5,99C 158.099,96.8274 158.099,94.4941 160.5,92C 159.263,91.7679 158.263,91.2679 157.5,90.5C 158.833,90.5 159.5,89.8333 159.5,88.5C 162.49,89.0321 165.49,88.5321 168.5,87C 169.756,86.5831 170.423,85.7498 170.5,84.5C 175.285,82.2382 180.285,80.5715 185.5,79.5C 187.451,79.7733 188.951,79.1066 190,77.5C 191.671,72.7427 192.171,68.076 191.5,63.5C 191.5,63.1667 191.5,62.8333 191.5,62.5C 193.536,60.7943 194.536,58.461 194.5,55.5C 194.549,51.9219 195.215,48.5885 196.5,45.5C 198.882,43.785 200.882,41.785 202.5,39.5 Z"/></g>
<g><path style="opacity:0.227" fill="#7f8284" d="M 289.5,83.5 C 296.833,86.1667 304.167,88.8333 311.5,91.5C 311.5,91.8333 311.5,92.1667 311.5,92.5C 311.44,93.0431 311.107,93.3764 310.5,93.5C 304.167,91 297.833,88.5 291.5,86C 290.244,85.5831 289.577,84.7498 289.5,83.5 Z"/></g>
<g><path style="opacity:0.173" fill="#adafb1" d="M 337.5,67.5 C 329.25,76.287 320.583,84.6203 311.5,92.5C 311.5,92.1667 311.5,91.8333 311.5,91.5C 319.26,82.4024 327.927,74.4024 337.5,67.5 Z"/></g>
<g><path style="opacity:0.302" fill="#a4a5a6" d="M 70.5,117.5 C 75.4767,123.432 79.4767,130.098 82.5,137.5C 78.0115,131.201 74.0115,124.534 70.5,117.5 Z"/></g>
<g><path style="opacity:0.159" fill="#999a9c" d="M 388.5,125.5 C 384.892,133.216 380.892,140.716 376.5,148C 382.721,157.94 387.721,168.44 391.5,179.5C 385.799,169.267 380.466,158.767 375.5,148C 377.862,141.962 380.695,136.128 384,130.5C 385.067,128.308 386.567,126.642 388.5,125.5 Z"/></g>
<g><path style="opacity:1" fill="#f3f3f4" d="M 345.5,192.5 C 342.432,194.122 339.598,196.122 337,198.5C 332.532,193.702 327.699,189.202 322.5,185C 301.913,175.682 285.747,180.515 274,199.5C 272.844,203.123 271.844,206.789 271,210.5C 270.333,228.833 270.333,247.167 271,265.5C 273.708,283.71 284.208,293.377 302.5,294.5C 316.494,294.089 327.327,288.089 335,276.5C 342.983,282.318 350.817,288.318 358.5,294.5C 361.133,295.66 361.966,297.66 361,300.5C 349.041,316.725 333.207,326.725 313.5,330.5C 286.972,332.646 265.139,323.646 248,303.5C 241.995,295.493 238.329,286.493 237,276.5C 235.612,260.205 235.112,243.872 235.5,227.5C 235.156,216.784 235.656,206.118 237,195.5C 247.068,163.641 268.735,146.641 302,144.5C 328.436,144.46 348.602,155.46 362.5,177.5C 362.392,178.442 362.059,179.275 361.5,180C 355.916,183.945 350.583,188.112 345.5,192.5 Z"/></g>
<g><path style="opacity:1" fill="#f3f3f3" d="M 179.5,144.5 C 191.345,144.172 203.012,144.505 214.5,145.5C 214.667,189.835 214.5,234.168 214,278.5C 204.303,317.608 179.469,334.108 139.5,328C 124.691,323.014 113.358,313.848 105.5,300.5C 102.543,295.13 100.709,289.463 100,283.5C 109.345,278.328 119.012,273.662 129,269.5C 131.465,274.523 134.132,279.523 137,284.5C 149.283,296.344 161.616,296.344 174,284.5C 177.076,279.605 178.743,274.272 179,268.5C 179.5,227.168 179.667,185.835 179.5,144.5 Z"/></g>
<g><path style="opacity:0.565" fill="#808385" d="M 82.5,138.5 C 85.0756,140.777 87.0756,143.611 88.5,147C 87.4026,149.739 85.7359,151.906 83.5,153.5C 84.2122,151.072 85.2122,148.739 86.5,146.5C 85.1534,143.807 83.8201,141.14 82.5,138.5 Z"/></g>
<g><path style="opacity:0.384" fill="#acaeaf" d="M 82.5,154.5 C 79.8449,160.787 77.1782,167.121 74.5,173.5C 73.8333,173.5 73.1667,173.5 72.5,173.5C 75.0726,166.685 78.4059,160.351 82.5,154.5 Z"/></g>
<g><path style="opacity:0.027" fill="#7b7c7d" d="M 72.5,173.5 C 73.1667,173.5 73.8333,173.5 74.5,173.5C 72.7394,176.945 71.0727,180.445 69.5,184C 60.3949,185.954 51.3949,186.787 42.5,186.5C 50.8297,185.382 59.163,184.215 67.5,183C 69.2919,179.917 70.9586,176.75 72.5,173.5 Z"/></g>
<g><path style="opacity:0.022" fill="#858788" d="M 391.5,179.5 C 392.364,180.688 393.364,181.855 394.5,183C 401.82,184.308 409.154,185.474 416.5,186.5C 415.551,187.152 414.385,187.486 413,187.5C 406.139,186.495 399.305,185.329 392.5,184C 391.62,182.644 391.286,181.144 391.5,179.5 Z"/></g>
<g><path style="opacity:0.008" fill="#7f8182" d="M 41.5,186.5 C 40.0193,188.247 38.0193,189.414 35.5,190C 33.7455,191.936 32.0789,193.77 30.5,195.5C 32.0771,189.921 35.7437,186.921 41.5,186.5 Z"/></g>
<g><path style="opacity:0.016" fill="#a9abad" d="M 426.5,189.5 C 430.113,190.363 432.113,192.697 432.5,196.5C 431.833,196.5 431.167,196.5 430.5,196.5C 430.443,195.391 430.11,194.391 429.5,193.5C 428.147,192.474 427.147,191.141 426.5,189.5 Z"/></g>
<g><path style="opacity:1" fill="#303940" d="M 116.5,67.5 C 118.833,67.5 121.167,67.5 123.5,67.5C 131.974,75.135 140.641,82.635 149.5,90C 150.946,91.298 152.279,91.4646 153.5,90.5C 153.833,90.5 154.167,90.5 154.5,90.5C 155.5,90.5 156.5,90.5 157.5,90.5C 158.263,91.2679 159.263,91.7679 160.5,92C 158.099,94.4941 158.099,96.8274 160.5,99C 158.744,99.2022 157.078,99.7022 155.5,100.5C 156.55,102.102 155.883,102.935 153.5,103C 154.253,104.487 155.086,104.654 156,103.5C 156.743,105.441 156.576,107.274 155.5,109C 156,109.5 156.5,110 157,110.5C 158.309,108.109 159.309,108.109 160,110.5C 161.356,109.62 162.856,109.286 164.5,109.5C 164.421,110.93 164.754,112.264 165.5,113.5C 167.193,114.228 168.693,115.228 170,116.5C 170.354,114.193 171.354,113.859 173,115.5C 173.381,114.518 174.214,113.852 175.5,113.5C 177.483,114.47 179.483,115.47 181.5,116.5C 179.174,116.514 176.84,116.514 174.5,116.5C 173.304,116.846 173.304,117.346 174.5,118C 172.645,118.422 170.811,118.922 169,119.5C 168.05,118.978 167.216,118.311 166.5,117.5C 165.618,118.76 164.618,119.926 163.5,121C 164.167,121.333 164.833,121.667 165.5,122C 164.151,122.772 163.318,123.939 163,125.5C 161.933,124.809 160.766,124.309 159.5,124C 160.167,123.667 160.833,123.333 161.5,123C 158.833,122 156.167,121 153.5,120C 157.131,119.794 157.465,118.627 154.5,116.5C 152.495,119.028 150.829,118.695 149.5,115.5C 148.812,117.718 149.812,119.218 152.5,120C 151.354,120.645 150.354,121.478 149.5,122.5C 147.232,121.281 145.399,119.615 144,117.5C 142.278,117.611 142.112,118.111 143.5,119C 141.421,119.808 139.421,119.641 137.5,118.5C 137.709,117.914 138.043,117.414 138.5,117C 136.711,116.48 135.044,116.813 133.5,118C 136.456,119.596 139.456,121.096 142.5,122.5C 143.167,122.167 143.833,121.833 144.5,121.5C 148.032,122.903 151.698,123.903 155.5,124.5C 153.306,124.358 150.973,124.691 148.5,125.5C 148.657,126.873 148.49,128.207 148,129.5C 146.004,129.004 144.337,128.004 143,126.5C 141.829,127.893 140.329,128.727 138.5,129C 139.354,130.022 140.354,130.855 141.5,131.5C 143.169,130.11 144.836,129.777 146.5,130.5C 144.667,132.05 142.501,133.05 140,133.5C 138.829,132.107 137.329,131.273 135.5,131C 136.167,130.333 136.833,129.667 137.5,129C 135.321,128.558 134.655,127.558 135.5,126C 133.689,126.707 131.689,127.207 129.5,127.5C 129.5,128.833 129.5,130.167 129.5,131.5C 130.93,131.579 132.264,131.246 133.5,130.5C 133.833,130.833 134.167,131.167 134.5,131.5C 133.833,132.167 133.167,132.833 132.5,133.5C 133.53,133.554 134.697,133.888 136,134.5C 136.195,136.207 136.195,137.874 136,139.5C 137.044,138.377 137.71,137.044 138,135.5C 139.333,137.5 140.667,139.5 142,141.5C 141.009,138.756 141.343,136.089 143,133.5C 144.707,134.138 146.54,134.138 148.5,133.5C 148.504,131.158 149.337,129.158 151,127.5C 153.595,127.003 156.095,127.67 158.5,129.5C 160.745,133.138 159.912,133.471 156,130.5C 155.5,131.667 154.667,132.5 153.5,133C 156.207,132.974 158.874,133.807 161.5,135.5C 161.5,137.167 161.5,138.833 161.5,140.5C 162.605,141.892 163.939,143.059 165.5,144C 157.794,145.932 157.794,146.932 165.5,147C 162.063,147.649 161.896,148.149 165,148.5C 167.241,148.32 167.741,147.487 166.5,146C 169.167,145.667 171.833,145.333 174.5,145C 168.872,143.578 168.039,140.744 172,136.5C 172.689,137.357 173.522,138.023 174.5,138.5C 176.556,136.981 178.89,136.147 181.5,136C 180.158,133.108 177.825,131.775 174.5,132C 175.711,131.107 175.711,130.274 174.5,129.5C 172.099,132.413 170.766,132.079 170.5,128.5C 166.689,128.404 166.689,127.738 170.5,126.5C 168.31,124.993 166.976,122.993 166.5,120.5C 169.327,121.974 171.827,121.64 174,119.5C 175.932,121.038 178.099,122.205 180.5,123C 179.833,123.333 179.167,123.667 178.5,124C 184.969,123.452 187.303,126.119 185.5,132C 187.577,132.192 189.577,132.692 191.5,133.5C 192.999,136.333 195.333,137.999 198.5,138.5C 196.833,139.167 195.167,139.833 193.5,140.5C 199.167,141.833 204.833,141.833 210.5,140.5C 208.922,139.928 207.422,139.594 206,139.5C 206.003,137.144 206.503,134.811 207.5,132.5C 206.975,131.808 206.308,131.308 205.5,131C 208.196,131.015 210.863,130.182 213.5,128.5C 214.244,129.991 214.91,131.491 215.5,133C 216.742,133.311 217.742,132.811 218.5,131.5C 219.262,132.628 219.929,133.795 220.5,135C 222.095,134.383 223.428,134.716 224.5,136C 223.5,137 222.5,138 221.5,139C 218.571,139.777 215.737,139.61 213,138.5C 212.316,139.784 212.483,140.951 213.5,142C 201.819,142.167 190.152,142.667 178.5,143.5C 178.624,144.107 178.957,144.44 179.5,144.5C 179.667,185.835 179.5,227.168 179,268.5C 178.743,274.272 177.076,279.605 174,284.5C 161.616,296.344 149.283,296.344 137,284.5C 134.132,279.523 131.465,274.523 129,269.5C 119.012,273.662 109.345,278.328 100,283.5C 100.709,289.463 102.543,295.13 105.5,300.5C 105.631,301.239 105.464,301.906 105,302.5C 102.377,297.59 100.044,292.59 98,287.5C 97.5172,288.448 97.3505,289.448 97.5,290.5C 91.7924,290.492 91.4591,290.992 96.5,292C 93.2789,295.689 89.9456,296.022 86.5,293C 89.3747,292.105 89.7081,291.272 87.5,290.5C 84.3472,291.236 81.3472,292.236 78.5,293.5C 80.4935,295.917 82.3268,295.917 84,293.5C 84.4687,295.108 85.1354,296.775 86,298.5C 87.1827,297.269 88.3493,297.269 89.5,298.5C 88.1667,299.833 88.1667,301.167 89.5,302.5C 88.4688,303.7 87.6355,305.034 87,306.5C 85.5263,303.675 84.0263,303.342 82.5,305.5C 80.4121,304.821 78.4121,304.488 76.5,304.5C 75.1465,307.067 75.4798,309.401 77.5,311.5C 78.6956,311.154 78.6956,310.654 77.5,310C 78.5,309.5 79.5,309 80.5,308.5C 82.1349,309.33 83.8016,309.497 85.5,309C 88.028,310.316 88.028,311.483 85.5,312.5C 87.0777,313.298 88.7444,313.798 90.5,314C 87.7737,314.182 85.1071,314.682 82.5,315.5C 83.6888,316.429 85.0222,316.762 86.5,316.5C 86.5,317.5 86.5,318.5 86.5,319.5C 87.8802,320.68 86.3802,320.68 82,319.5C 79.6977,313.048 79.1977,313.382 80.5,320.5C 79.3966,320.998 78.3966,321.331 77.5,321.5C 78.1667,322.167 78.8333,322.833 79.5,323.5C 78.3131,323.554 76.9798,323.887 75.5,324.5C 79.567,325.48 83.567,326.313 87.5,327C 83.415,325.099 83.5817,323.599 88,322.5C 88.9525,324.592 90.2859,324.925 92,323.5C 94.087,324.794 96.2537,325.961 98.5,327C 98.1667,327.333 97.8333,327.667 97.5,328C 98.5,328.333 99.5,328.667 100.5,329C 98.3883,330.445 96.2216,330.278 94,328.5C 93.6886,329.742 94.1886,330.742 95.5,331.5C 94.4783,332.354 93.6449,333.354 93,334.5C 90.3673,331.746 87.2006,329.746 83.5,328.5C 79.6318,331.122 75.7985,331.122 72,328.5C 70.2481,331.672 68.2481,334.672 66,337.5C 65.31,338.738 64.81,338.738 64.5,337.5C 69.0199,330.808 73.3532,323.974 77.5,317C 75.3333,311.167 73.1667,305.333 71,299.5C 70.5831,298.244 69.7498,297.577 68.5,297.5C 68.5,297.167 68.5,296.833 68.5,296.5C 68.8039,295.85 69.1373,295.183 69.5,294.5C 68.2689,291.41 67.2689,288.243 66.5,285C 66.1639,283.97 65.4972,283.47 64.5,283.5C 63.962,281.883 63.6287,280.216 63.5,278.5C 64.6527,277.687 64.6527,276.687 63.5,275.5C 61.9547,274.548 60.288,274.215 58.5,274.5C 53.759,274.265 49.0923,273.598 44.5,272.5C 44.38,271.414 43.7133,270.747 42.5,270.5C 38.6019,270.022 34.9352,268.855 31.5,267C 31.0853,264.974 30.0853,263.474 28.5,262.5C 28.8911,240.157 29.5578,217.824 30.5,195.5C 32.0789,193.77 33.7455,191.936 35.5,190C 38.0193,189.414 40.0193,188.247 41.5,186.5C 41.8333,186.5 42.1667,186.5 42.5,186.5C 51.3949,186.787 60.3949,185.954 69.5,184C 71.0727,180.445 72.7394,176.945 74.5,173.5C 77.1782,167.121 79.8449,160.787 82.5,154.5C 82.5,153.833 82.8333,153.5 83.5,153.5C 85.7359,151.906 87.4026,149.739 88.5,147C 87.0756,143.611 85.0756,140.777 82.5,138.5C 82.5,138.167 82.5,137.833 82.5,137.5C 79.4767,130.098 75.4767,123.432 70.5,117.5C 70.5,115.833 70.5,114.167 70.5,112.5C 86.416,98.2524 101.749,83.2524 116.5,67.5 Z"/></g>
<g><path style="opacity:0.949" fill="#192028" d="M 429.5,193.5 C 430.11,194.391 430.443,195.391 430.5,196.5C 431.722,218.503 432.056,240.503 431.5,262.5C 430.292,265.044 428.292,266.378 425.5,266.5C 425.062,266.565 424.728,266.399 424.5,266C 429.879,263.964 432.212,259.964 431.5,254C 430.672,234.13 429.672,214.296 428.5,194.5C 428.624,193.893 428.957,193.56 429.5,193.5 Z"/></g>
<g><path style="opacity:1" fill="#323b42" d="M 417.5,186.5 C 420.657,187.127 423.657,188.127 426.5,189.5C 427.147,191.141 428.147,192.474 429.5,193.5C 428.957,193.56 428.624,193.893 428.5,194.5C 429.672,214.296 430.672,234.13 431.5,254C 432.212,259.964 429.879,263.964 424.5,266C 424.728,266.399 425.062,266.565 425.5,266.5C 425.5,267.167 425.5,267.833 425.5,268.5C 417.972,270.966 410.305,272.966 402.5,274.5C 401.325,274.281 400.325,274.614 399.5,275.5C 399.624,276.107 399.957,276.44 400.5,276.5C 396.747,288.429 392.414,300.096 387.5,311.5C 385.487,312.475 384.154,314.142 383.5,316.5C 386.364,321.586 389.698,326.253 393.5,330.5C 393.738,332.404 394.738,333.738 396.5,334.5C 397.781,338.433 400.114,341.433 403.5,343.5C 403.5,345.5 403.5,347.5 403.5,349.5C 399.879,352.783 396.213,356.116 392.5,359.5C 390.158,359.225 390.158,358.392 392.5,357C 390.731,354.943 388.731,353.11 386.5,351.5C 386.887,350.28 387.72,349.613 389,349.5C 390.44,350.148 391.94,350.481 393.5,350.5C 393.312,348.897 393.812,347.563 395,346.5C 396.626,346.854 398.459,346.854 400.5,346.5C 395.687,337.495 390.187,328.829 384,320.5C 383.027,318.608 382.36,316.608 382,314.5C 379.91,315.791 378.576,315.124 378,312.5C 377.691,311.234 377.191,310.067 376.5,309C 378.18,308.653 379.18,307.653 379.5,306C 379.24,304.205 378.906,302.371 378.5,300.5C 377.304,300.846 377.304,301.346 378.5,302C 376.382,302.26 374.716,303.26 373.5,305C 372.101,305.595 370.768,305.428 369.5,304.5C 368.833,305.167 368.167,305.833 367.5,306.5C 366.402,305.385 365.235,305.385 364,306.5C 362.967,306.452 362.634,306.119 363,305.5C 364.171,304.107 365.671,303.273 367.5,303C 363.409,301.962 361.409,299.296 361.5,295C 360.552,294.517 359.552,294.351 358.5,294.5C 350.817,288.318 342.983,282.318 335,276.5C 327.327,288.089 316.494,294.089 302.5,294.5C 284.208,293.377 273.708,283.71 271,265.5C 270.333,247.167 270.333,228.833 271,210.5C 271.844,206.789 272.844,203.123 274,199.5C 285.747,180.515 301.913,175.682 322.5,185C 327.699,189.202 332.532,193.702 337,198.5C 339.598,196.122 342.432,194.122 345.5,192.5C 346.344,197.666 348.177,197.666 351,192.5C 351.402,193.872 351.902,195.205 352.5,196.5C 351.5,197.167 350.5,197.833 349.5,198.5C 350.025,199.192 350.692,199.692 351.5,200C 349.82,200.347 348.82,201.347 348.5,203C 350.041,207.101 352.374,207.601 355.5,204.5C 356.672,204.919 357.672,205.585 358.5,206.5C 359.386,205.675 359.719,204.675 359.5,203.5C 355.107,203.543 354.774,203.043 358.5,202C 357.289,201.107 357.289,200.274 358.5,199.5C 359.803,200.718 360.803,200.385 361.5,198.5C 363.505,201.028 365.171,200.695 366.5,197.5C 367.696,197.846 367.696,198.346 366.5,199C 368.329,199.273 369.829,200.107 371,201.5C 371.72,199.888 371.554,198.388 370.5,197C 372.047,196.667 373.38,197.167 374.5,198.5C 374.833,198.167 375.167,197.833 375.5,197.5C 374.189,196.742 373.689,195.742 374,194.5C 374.667,195.833 375.333,195.833 376,194.5C 376.333,195.5 376.667,196.5 377,197.5C 377.654,196.304 378.154,196.304 378.5,197.5C 377.687,198.814 376.687,199.981 375.5,201C 376.907,202.452 378.407,202.285 380,200.5C 380.727,197.845 381.894,195.512 383.5,193.5C 384.748,194.04 385.915,194.707 387,195.5C 388.406,194.332 389.572,194.665 390.5,196.5C 391.731,195.349 391.731,194.183 390.5,193C 388.833,192.667 387.167,192.333 385.5,192C 384.739,187.642 383.572,187.475 382,191.5C 381.833,190.833 381.667,190.167 381.5,189.5C 382.28,188.051 382.946,186.551 383.5,185C 383.245,183.674 382.578,182.674 381.5,182C 383.488,181.82 385.488,181.986 387.5,182.5C 387.343,181.127 387.51,179.793 388,178.5C 389.123,181.249 390.623,183.749 392.5,186C 400.822,187.317 409.156,188.483 417.5,189.5C 417.5,188.5 417.5,187.5 417.5,186.5 Z"/></g>
<g><path style="opacity:0.059" fill="#5d6064" d="M 430.5,196.5 C 431.167,196.5 431.833,196.5 432.5,196.5C 432.573,218.505 432.907,240.505 433.5,262.5C 432.833,262.5 432.167,262.5 431.5,262.5C 432.056,240.503 431.722,218.503 430.5,196.5 Z"/></g>
<g><path style="opacity:0.122" fill="#9a9d9f" d="M 431.5,262.5 C 432.167,262.5 432.833,262.5 433.5,262.5C 432.392,266.404 429.725,268.404 425.5,268.5C 425.5,267.833 425.5,267.167 425.5,266.5C 428.292,266.378 430.292,265.044 431.5,262.5 Z"/></g>
<g><path style="opacity:0.192" fill="#77797d" d="M 28.5,262.5 C 30.0853,263.474 31.0853,264.974 31.5,267C 34.9352,268.855 38.6019,270.022 42.5,270.5C 43.7133,270.747 44.38,271.414 44.5,272.5C 40.0436,271.803 35.7102,270.636 31.5,269C 29.5494,267.266 28.5494,265.099 28.5,262.5 Z"/></g>
<g><path style="opacity:0.18" fill="#989a9c" d="M 58.5,274.5 C 60.288,274.215 61.9547,274.548 63.5,275.5C 64.6527,276.687 64.6527,277.687 63.5,278.5C 62.3738,276.464 60.7071,275.13 58.5,274.5 Z"/></g>
<g><path style="opacity:0.004" fill="#d8d8d8" d="M 402.5,274.5 C 402.167,275.5 401.5,276.167 400.5,276.5C 399.957,276.44 399.624,276.107 399.5,275.5C 400.325,274.614 401.325,274.281 402.5,274.5 Z"/></g>
<g><path style="opacity:0.408" fill="#7b7d80" d="M 64.5,283.5 C 65.4972,283.47 66.1639,283.97 66.5,285C 67.2689,288.243 68.2689,291.41 69.5,294.5C 69.1373,295.183 68.8039,295.85 68.5,296.5C 66.7211,292.406 65.3877,288.073 64.5,283.5 Z"/></g>
<g><path style="opacity:1" fill="#333d44" d="M 358.5,294.5 C 359.552,294.351 360.552,294.517 361.5,295C 361.409,299.296 363.409,301.962 367.5,303C 365.671,303.273 364.171,304.107 363,305.5C 362.634,306.119 362.967,306.452 364,306.5C 365.235,305.385 366.402,305.385 367.5,306.5C 368.167,305.833 368.833,305.167 369.5,304.5C 370.768,305.428 372.101,305.595 373.5,305C 374.716,303.26 376.382,302.26 378.5,302C 377.304,301.346 377.304,300.846 378.5,300.5C 378.906,302.371 379.24,304.205 379.5,306C 379.18,307.653 378.18,308.653 376.5,309C 377.191,310.067 377.691,311.234 378,312.5C 378.576,315.124 379.91,315.791 382,314.5C 382.36,316.608 383.027,318.608 384,320.5C 390.187,328.829 395.687,337.495 400.5,346.5C 398.459,346.854 396.626,346.854 395,346.5C 393.812,347.563 393.312,348.897 393.5,350.5C 391.94,350.481 390.44,350.148 389,349.5C 387.72,349.613 386.887,350.28 386.5,351.5C 388.731,353.11 390.731,354.943 392.5,357C 390.158,358.392 390.158,359.225 392.5,359.5C 381.062,370.437 369.728,381.604 358.5,393C 356.595,394.421 354.595,395.588 352.5,396.5C 351.584,396.982 350.584,397.315 349.5,397.5C 346.078,396.923 343.078,395.589 340.5,393.5C 339.738,391.738 338.404,390.738 336.5,390.5C 335.415,388.413 333.749,387.08 331.5,386.5C 328.072,382.156 323.905,379.49 319,378.5C 317.583,379.078 316.75,380.078 316.5,381.5C 311.587,381.956 307.587,383.956 304.5,387.5C 299.659,390.086 294.659,392.42 289.5,394.5C 289.265,393.903 288.765,393.57 288,393.5C 283.956,395.275 279.789,396.608 275.5,397.5C 275.5,398.5 275.5,399.5 275.5,400.5C 274.143,408.591 272.476,416.591 270.5,424.5C 268.14,425.865 266.473,427.865 265.5,430.5C 263.167,430.5 260.833,430.5 258.5,430.5C 258.5,430.167 258.5,429.833 258.5,429.5C 249.864,428.465 237.197,428.132 220.5,428.5C 220.895,425.477 219.895,424.477 217.5,425.5C 215.99,423.491 214.323,421.658 212.5,420C 213.899,419.405 215.232,419.572 216.5,420.5C 217.308,420.192 217.975,419.692 218.5,419C 215.544,418.011 212.544,417.178 209.5,416.5C 207.542,413.847 204.876,412.18 201.5,411.5C 201.167,411.833 200.833,412.167 200.5,412.5C 201.833,413.167 203.167,413.833 204.5,414.5C 203.359,415.425 203.359,416.259 204.5,417C 201.697,417.755 199.03,417.422 196.5,416C 197.357,415.311 198.023,414.478 198.5,413.5C 197.284,412.904 195.951,412.737 194.5,413C 195.167,411.333 195.833,409.667 196.5,408C 193.706,406.964 193.206,405.464 195,403.5C 198.026,405.017 201.193,406.35 204.5,407.5C 207.019,405.718 209.685,404.218 212.5,403C 211.304,402.346 211.304,401.846 212.5,401.5C 213.293,401.931 214.127,402.265 215,402.5C 219.56,399.534 224.227,397.534 229,396.5C 230.762,396.944 230.595,397.444 228.5,398C 228.833,398.333 229.167,398.667 229.5,399C 227.913,399.862 226.246,400.529 224.5,401C 225.5,401.333 226.5,401.667 227.5,402C 227.167,402.333 226.833,402.667 226.5,403C 228.85,406.981 232.183,408.147 236.5,406.5C 234.527,405.669 232.527,405.502 230.5,406C 234.044,403.924 233.377,402.591 228.5,402C 231.14,400.367 233.807,400.533 236.5,402.5C 237.59,403.727 238.924,404.56 240.5,405C 239.62,406.356 239.286,407.856 239.5,409.5C 240.552,409.649 241.552,409.483 242.5,409C 241.366,407.984 241.699,407.317 243.5,407C 242.833,406.333 242.167,405.667 241.5,405C 242.738,405.077 243.738,404.911 244.5,404.5C 242.631,403.376 240.631,402.543 238.5,402C 242.239,400.777 244.905,401.944 246.5,405.5C 247.711,404.726 247.711,403.893 246.5,403C 247.448,402.517 248.448,402.351 249.5,402.5C 249.714,400.856 249.38,399.356 248.5,398C 249.167,397.667 249.833,397.333 250.5,397C 249.234,396.691 248.067,396.191 247,395.5C 244.833,397 245,398.167 247.5,399C 246.366,400.016 246.699,400.683 248.5,401C 246.536,401.624 244.869,401.124 243.5,399.5C 244.609,397.786 243.942,397.119 241.5,397.5C 241.248,394.756 241.915,392.256 243.5,390C 243.18,388.347 242.18,387.347 240.5,387C 243.943,386.779 244.276,385.779 241.5,384C 240.207,383.51 238.873,383.343 237.5,383.5C 237.649,382.448 237.483,381.448 237,380.5C 233.875,382.955 234.375,384.622 238.5,385.5C 238.838,388.157 238.171,390.49 236.5,392.5C 237.648,394.149 238.981,395.649 240.5,397C 239.324,398.914 238.324,398.748 237.5,396.5C 236.5,397.833 235.5,397.833 234.5,396.5C 234.935,397.962 234.102,398.962 232,399.5C 231.5,399.333 231,399.167 230.5,399C 231.38,397.644 231.714,396.144 231.5,394.5C 226.702,395.299 222.369,393.965 218.5,390.5C 216.531,392.059 214.698,393.726 213,395.5C 211.601,394.773 210.101,394.273 208.5,394C 210.004,392.663 211.004,390.996 211.5,389C 215.932,388.377 216.265,387.377 212.5,386C 214.447,385.009 216.447,384.675 218.5,385C 218.167,385.333 217.833,385.667 217.5,386C 218.191,387.067 218.691,388.234 219,389.5C 221.064,388.409 223.231,388.242 225.5,389C 223.833,392.333 224.833,393.667 228.5,393C 227.167,392.333 227.167,391.667 228.5,391C 225.972,390.331 225.972,389.498 228.5,388.5C 230.214,389.609 230.881,388.942 230.5,386.5C 226.446,386.79 225.946,386.123 229,384.5C 229.333,384.833 229.667,385.167 230,385.5C 230.494,383.866 230.66,382.199 230.5,380.5C 229.07,380.421 227.736,380.754 226.5,381.5C 225.417,380.635 225.251,379.635 226,378.5C 228.466,379.777 230.966,379.777 233.5,378.5C 231.883,378.331 230.216,377.997 228.5,377.5C 230.167,376.833 231.833,376.167 233.5,375.5C 232.533,371.398 233.7,370.731 237,373.5C 237.492,372.451 237.326,371.451 236.5,370.5C 237.853,369.476 238.52,368.143 238.5,366.5C 241.339,363.601 243.339,362.601 244.5,363.5C 244.5,364.5 244.5,365.5 244.5,366.5C 246.655,366.372 248.655,366.872 250.5,368C 247.997,369.22 245.331,369.553 242.5,369C 242.167,369.333 241.833,369.667 241.5,370C 242.938,370.219 244.271,370.719 245.5,371.5C 243.883,373.983 241.55,375.483 238.5,376C 242.783,375.546 247.117,375.046 251.5,374.5C 251.5,373.5 251.5,372.5 251.5,371.5C 253.927,371.477 256.26,370.977 258.5,370C 257.5,369.167 256.5,368.333 255.5,367.5C 256.397,367.331 257.397,366.998 258.5,366.5C 257.257,364.167 255.591,363.5 253.5,364.5C 252.5,364 251.5,363.5 250.5,363C 251.833,362.333 251.833,361.667 250.5,361C 247.588,359.76 244.921,358.094 242.5,356C 244.833,355.667 247.167,355.333 249.5,355C 246.937,354.237 246.937,353.737 249.5,353.5C 253.081,355.159 253.081,356.325 249.5,357C 250.766,357.309 251.933,357.809 253,358.5C 253.9,357.23 255.066,356.23 256.5,355.5C 254.565,354.437 252.899,353.103 251.5,351.5C 249.291,352.106 247.124,352.773 245,353.5C 244.08,353.07 243.247,352.736 242.5,352.5C 246.464,351.223 250.464,350.223 254.5,349.5C 254.343,350.873 254.51,352.207 255,353.5C 256.356,352.62 257.856,352.286 259.5,352.5C 259.881,350.058 259.214,349.391 257.5,350.5C 254.531,349.332 254.198,347.999 256.5,346.5C 255.975,345.808 255.308,345.308 254.5,345C 256.623,343.806 258.957,343.14 261.5,343C 262.833,342.333 262.833,341.667 261.5,341C 263.129,340.415 264.629,339.581 266,338.5C 267.811,339.078 269.645,339.578 271.5,340C 270.701,341.749 271.368,343.082 273.5,344C 271.865,344.54 270.532,344.04 269.5,342.5C 268.432,344.187 268.599,345.854 270,347.5C 271.25,346.427 272.584,346.427 274,347.5C 275.951,347.112 277.451,346.112 278.5,344.5C 276.009,343.459 276.009,342.626 278.5,342C 277.833,341.667 277.167,341.333 276.5,341C 278.055,339.354 279.721,339.021 281.5,340C 280.833,339 280.167,338 279.5,337C 280.825,337.148 281.992,336.982 283,336.5C 283.333,337.167 283.667,337.833 284,338.5C 285.011,337.663 286.178,337.33 287.5,337.5C 287.5,336.5 287.5,335.5 287.5,334.5C 288.552,334.649 289.552,334.483 290.5,334C 288.337,333.755 286.67,332.755 285.5,331C 296.115,332.86 306.781,332.86 317.5,331C 316.207,330.51 314.873,330.343 313.5,330.5C 333.207,326.725 349.041,316.725 361,300.5C 361.966,297.66 361.133,295.66 358.5,294.5 Z"/></g>
<g><path style="opacity:0.008" fill="#95989b" d="M 387.5,311.5 C 387.131,313.441 386.464,315.275 385.5,317C 388.302,321.44 390.969,325.94 393.5,330.5C 389.698,326.253 386.364,321.586 383.5,316.5C 384.154,314.142 385.487,312.475 387.5,311.5 Z"/></g>
<g><path style="opacity:0.239" fill="#9c9ea0" d="M 68.5,297.5 C 69.7498,297.577 70.5831,298.244 71,299.5C 73.1667,305.333 75.3333,311.167 77.5,317C 73.3532,323.974 69.0199,330.808 64.5,337.5C 63.8333,337.5 63.1667,337.5 62.5,337.5C 67.077,330.685 71.4103,323.685 75.5,316.5C 72.9646,310.226 70.6312,303.892 68.5,297.5 Z"/></g>
<g><path style="opacity:0.325" fill="#c2c5c5" d="M 393.5,330.5 C 395.262,331.262 396.262,332.596 396.5,334.5C 394.738,333.738 393.738,332.404 393.5,330.5 Z"/></g>
<g><path style="opacity:0.267" fill="#bebebe" d="M 396.5,334.5 C 399.185,337.19 401.518,340.19 403.5,343.5C 400.114,341.433 397.781,338.433 396.5,334.5 Z"/></g>
<g><path style="opacity:1" fill="#333d44" d="M 214.5,145.5 C 215.333,188.331 215.833,231.331 216,274.5C 216.215,259.468 216.715,244.468 217.5,229.5C 219.331,230.052 220.997,230.052 222.5,229.5C 223.415,230.328 224.081,231.328 224.5,232.5C 222.604,233.466 220.604,233.799 218.5,233.5C 218.5,234.5 218.5,235.5 218.5,236.5C 221.808,234.884 225.142,234.05 228.5,234C 227.833,232.667 226.833,231.667 225.5,231C 226.687,229.981 227.687,228.814 228.5,227.5C 228,227.167 227.5,226.833 227,226.5C 225.699,227.893 224.199,228.393 222.5,228C 223.866,226.4 224.866,224.567 225.5,222.5C 227.225,221.985 228.892,221.318 230.5,220.5C 229.477,218.105 230.477,217.105 233.5,217.5C 233.5,224.5 233.5,231.5 233.5,238.5C 231.533,238.261 229.699,238.594 228,239.5C 227.544,238.256 228.044,237.423 229.5,237C 227.527,236.505 225.527,236.338 223.5,236.5C 223.425,239.206 223.092,241.873 222.5,244.5C 224.201,244.034 225.701,244.034 227,244.5C 227.311,243.258 226.811,242.258 225.5,241.5C 227.686,240.779 229.853,240.113 232,239.5C 232.752,242.894 232.585,246.227 231.5,249.5C 233.046,255.04 233.88,260.706 234,266.5C 234.169,253.327 234.669,240.327 235.5,227.5C 235.112,243.872 235.612,260.205 237,276.5C 238.329,286.493 241.995,295.493 248,303.5C 265.139,323.646 286.972,332.646 313.5,330.5C 314.873,330.343 316.207,330.51 317.5,331C 306.781,332.86 296.115,332.86 285.5,331C 286.67,332.755 288.337,333.755 290.5,334C 289.552,334.483 288.552,334.649 287.5,334.5C 287.5,335.5 287.5,336.5 287.5,337.5C 286.178,337.33 285.011,337.663 284,338.5C 283.667,337.833 283.333,337.167 283,336.5C 281.992,336.982 280.825,337.148 279.5,337C 280.167,338 280.833,339 281.5,340C 279.721,339.021 278.055,339.354 276.5,341C 277.167,341.333 277.833,341.667 278.5,342C 276.009,342.626 276.009,343.459 278.5,344.5C 277.451,346.112 275.951,347.112 274,347.5C 272.584,346.427 271.25,346.427 270,347.5C 268.599,345.854 268.432,344.187 269.5,342.5C 270.532,344.04 271.865,344.54 273.5,344C 271.368,343.082 270.701,341.749 271.5,340C 269.645,339.578 267.811,339.078 266,338.5C 264.629,339.581 263.129,340.415 261.5,341C 262.833,341.667 262.833,342.333 261.5,343C 258.957,343.14 256.623,343.806 254.5,345C 255.308,345.308 255.975,345.808 256.5,346.5C 254.198,347.999 254.531,349.332 257.5,350.5C 259.214,349.391 259.881,350.058 259.5,352.5C 257.856,352.286 256.356,352.62 255,353.5C 254.51,352.207 254.343,350.873 254.5,349.5C 250.464,350.223 246.464,351.223 242.5,352.5C 243.247,352.736 244.08,353.07 245,353.5C 247.124,352.773 249.291,352.106 251.5,351.5C 252.899,353.103 254.565,354.437 256.5,355.5C 255.066,356.23 253.9,357.23 253,358.5C 251.933,357.809 250.766,357.309 249.5,357C 253.081,356.325 253.081,355.159 249.5,353.5C 246.937,353.737 246.937,354.237 249.5,355C 247.167,355.333 244.833,355.667 242.5,356C 244.921,358.094 247.588,359.76 250.5,361C 251.833,361.667 251.833,362.333 250.5,363C 251.5,363.5 252.5,364 253.5,364.5C 255.591,363.5 257.257,364.167 258.5,366.5C 257.397,366.998 256.397,367.331 255.5,367.5C 256.5,368.333 257.5,369.167 258.5,370C 256.26,370.977 253.927,371.477 251.5,371.5C 251.5,372.5 251.5,373.5 251.5,374.5C 247.117,375.046 242.783,375.546 238.5,376C 241.55,375.483 243.883,373.983 245.5,371.5C 244.271,370.719 242.938,370.219 241.5,370C 241.833,369.667 242.167,369.333 242.5,369C 245.331,369.553 247.997,369.22 250.5,368C 248.655,366.872 246.655,366.372 244.5,366.5C 244.5,365.5 244.5,364.5 244.5,363.5C 243.339,362.601 241.339,363.601 238.5,366.5C 238.52,368.143 237.853,369.476 236.5,370.5C 237.326,371.451 237.492,372.451 237,373.5C 233.7,370.731 232.533,371.398 233.5,375.5C 231.833,376.167 230.167,376.833 228.5,377.5C 230.216,377.997 231.883,378.331 233.5,378.5C 230.966,379.777 228.466,379.777 226,378.5C 225.251,379.635 225.417,380.635 226.5,381.5C 227.736,380.754 229.07,380.421 230.5,380.5C 230.66,382.199 230.494,383.866 230,385.5C 229.667,385.167 229.333,384.833 229,384.5C 225.946,386.123 226.446,386.79 230.5,386.5C 230.881,388.942 230.214,389.609 228.5,388.5C 225.972,389.498 225.972,390.331 228.5,391C 227.167,391.667 227.167,392.333 228.5,393C 224.833,393.667 223.833,392.333 225.5,389C 223.231,388.242 221.064,388.409 219,389.5C 218.691,388.234 218.191,387.067 217.5,386C 217.833,385.667 218.167,385.333 218.5,385C 216.447,384.675 214.447,385.009 212.5,386C 216.265,387.377 215.932,388.377 211.5,389C 211.004,390.996 210.004,392.663 208.5,394C 210.101,394.273 211.601,394.773 213,395.5C 214.698,393.726 216.531,392.059 218.5,390.5C 222.369,393.965 226.702,395.299 231.5,394.5C 231.714,396.144 231.38,397.644 230.5,399C 231,399.167 231.5,399.333 232,399.5C 234.102,398.962 234.935,397.962 234.5,396.5C 235.5,397.833 236.5,397.833 237.5,396.5C 238.324,398.748 239.324,398.914 240.5,397C 238.981,395.649 237.648,394.149 236.5,392.5C 238.171,390.49 238.838,388.157 238.5,385.5C 234.375,384.622 233.875,382.955 237,380.5C 237.483,381.448 237.649,382.448 237.5,383.5C 238.873,383.343 240.207,383.51 241.5,384C 244.276,385.779 243.943,386.779 240.5,387C 242.18,387.347 243.18,388.347 243.5,390C 241.915,392.256 241.248,394.756 241.5,397.5C 243.942,397.119 244.609,397.786 243.5,399.5C 244.869,401.124 246.536,401.624 248.5,401C 246.699,400.683 246.366,400.016 247.5,399C 245,398.167 244.833,397 247,395.5C 248.067,396.191 249.234,396.691 250.5,397C 249.833,397.333 249.167,397.667 248.5,398C 249.38,399.356 249.714,400.856 249.5,402.5C 248.448,402.351 247.448,402.517 246.5,403C 247.711,403.893 247.711,404.726 246.5,405.5C 244.905,401.944 242.239,400.777 238.5,402C 240.631,402.543 242.631,403.376 244.5,404.5C 243.738,404.911 242.738,405.077 241.5,405C 242.167,405.667 242.833,406.333 243.5,407C 241.699,407.317 241.366,407.984 242.5,409C 241.552,409.483 240.552,409.649 239.5,409.5C 239.286,407.856 239.62,406.356 240.5,405C 238.924,404.56 237.59,403.727 236.5,402.5C 233.807,400.533 231.14,400.367 228.5,402C 233.377,402.591 234.044,403.924 230.5,406C 232.527,405.502 234.527,405.669 236.5,406.5C 232.183,408.147 228.85,406.981 226.5,403C 226.833,402.667 227.167,402.333 227.5,402C 226.5,401.667 225.5,401.333 224.5,401C 226.246,400.529 227.913,399.862 229.5,399C 229.167,398.667 228.833,398.333 228.5,398C 230.595,397.444 230.762,396.944 229,396.5C 224.227,397.534 219.56,399.534 215,402.5C 214.127,402.265 213.293,401.931 212.5,401.5C 211.304,401.846 211.304,402.346 212.5,403C 209.685,404.218 207.019,405.718 204.5,407.5C 201.193,406.35 198.026,405.017 195,403.5C 193.206,405.464 193.706,406.964 196.5,408C 195.833,409.667 195.167,411.333 194.5,413C 195.951,412.737 197.284,412.904 198.5,413.5C 198.023,414.478 197.357,415.311 196.5,416C 199.03,417.422 201.697,417.755 204.5,417C 203.359,416.259 203.359,415.425 204.5,414.5C 203.167,413.833 201.833,413.167 200.5,412.5C 200.833,412.167 201.167,411.833 201.5,411.5C 204.876,412.18 207.542,413.847 209.5,416.5C 212.544,417.178 215.544,418.011 218.5,419C 217.975,419.692 217.308,420.192 216.5,420.5C 215.232,419.572 213.899,419.405 212.5,420C 214.323,421.658 215.99,423.491 217.5,425.5C 219.895,424.477 220.895,425.477 220.5,428.5C 213.159,428.666 205.826,428.5 198.5,428C 197.299,427.097 196.465,425.931 196,424.5C 195.517,425.448 195.351,426.448 195.5,427.5C 195.167,427.5 194.833,427.5 194.5,427.5C 192.935,425.491 191.935,423.157 191.5,420.5C 191.028,413.23 189.528,405.897 187,398.5C 182.125,395.931 176.959,394.264 171.5,393.5C 167.266,392.205 163.266,390.539 159.5,388.5C 157.165,385.835 154.165,384.502 150.5,384.5C 146.891,381.689 142.891,379.355 138.5,377.5C 131.657,383.511 124.99,389.678 118.5,396C 113.09,398.365 108.09,397.699 103.5,394C 88.9114,379.244 74.2447,364.744 59.5,350.5C 57.6629,345.565 58.6629,341.231 62.5,337.5C 63.1667,337.5 63.8333,337.5 64.5,337.5C 64.81,338.738 65.31,338.738 66,337.5C 68.2481,334.672 70.2481,331.672 72,328.5C 75.7985,331.122 79.6318,331.122 83.5,328.5C 87.2006,329.746 90.3673,331.746 93,334.5C 93.6449,333.354 94.4783,332.354 95.5,331.5C 94.1886,330.742 93.6886,329.742 94,328.5C 96.2216,330.278 98.3883,330.445 100.5,329C 99.5,328.667 98.5,328.333 97.5,328C 97.8333,327.667 98.1667,327.333 98.5,327C 96.2537,325.961 94.087,324.794 92,323.5C 90.2859,324.925 88.9525,324.592 88,322.5C 83.5817,323.599 83.415,325.099 87.5,327C 83.567,326.313 79.567,325.48 75.5,324.5C 76.9798,323.887 78.3131,323.554 79.5,323.5C 78.8333,322.833 78.1667,322.167 77.5,321.5C 78.3966,321.331 79.3966,320.998 80.5,320.5C 79.1977,313.382 79.6977,313.048 82,319.5C 86.3802,320.68 87.8802,320.68 86.5,319.5C 86.5,318.5 86.5,317.5 86.5,316.5C 85.0222,316.762 83.6888,316.429 82.5,315.5C 85.1071,314.682 87.7737,314.182 90.5,314C 88.7444,313.798 87.0777,313.298 85.5,312.5C 88.028,311.483 88.028,310.316 85.5,309C 83.8016,309.497 82.1349,309.33 80.5,308.5C 79.5,309 78.5,309.5 77.5,310C 78.6956,310.654 78.6956,311.154 77.5,311.5C 75.4798,309.401 75.1465,307.067 76.5,304.5C 78.4121,304.488 80.4121,304.821 82.5,305.5C 84.0263,303.342 85.5263,303.675 87,306.5C 87.6355,305.034 88.4688,303.7 89.5,302.5C 88.1667,301.167 88.1667,299.833 89.5,298.5C 88.3493,297.269 87.1827,297.269 86,298.5C 85.1354,296.775 84.4687,295.108 84,293.5C 82.3268,295.917 80.4935,295.917 78.5,293.5C 81.3472,292.236 84.3472,291.236 87.5,290.5C 89.7081,291.272 89.3747,292.105 86.5,293C 89.9456,296.022 93.2789,295.689 96.5,292C 91.4591,290.992 91.7924,290.492 97.5,290.5C 97.3505,289.448 97.5172,288.448 98,287.5C 100.044,292.59 102.377,297.59 105,302.5C 105.464,301.906 105.631,301.239 105.5,300.5C 113.358,313.848 124.691,323.014 139.5,328C 179.469,334.108 204.303,317.608 214,278.5C 214.5,234.168 214.667,189.835 214.5,145.5 Z"/></g>
<g><path style="opacity:0.016" fill="#b7b8b8" d="M 59.5,350.5 C 74.2447,364.744 88.9114,379.244 103.5,394C 108.09,397.699 113.09,398.365 118.5,396C 124.99,389.678 131.657,383.511 138.5,377.5C 142.891,379.355 146.891,381.689 150.5,384.5C 146.392,383.531 142.559,381.864 139,379.5C 132.167,385.667 125.333,391.833 118.5,398C 113.643,400.21 108.976,399.877 104.5,397C 88.912,381.915 73.912,366.415 59.5,350.5 Z"/></g>
<g><path style="opacity:0.059" fill="#c2c2c3" d="M 403.5,349.5 C 403.297,351.044 402.63,352.378 401.5,353.5C 386.109,369.227 370.109,384.227 353.5,398.5C 353.167,397.833 352.833,397.167 352.5,396.5C 354.595,395.588 356.595,394.421 358.5,393C 369.728,381.604 381.062,370.437 392.5,359.5C 396.213,356.116 399.879,352.783 403.5,349.5 Z"/></g>
<g><path style="opacity:0.102" fill="#a6a9aa" d="M 331.5,386.5 C 328.222,385.191 325.222,383.358 322.5,381C 320.455,380.51 318.455,380.677 316.5,381.5C 316.75,380.078 317.583,379.078 319,378.5C 323.905,379.49 328.072,382.156 331.5,386.5 Z"/></g>
<g><path style="opacity:0.533" fill="#77797c" d="M 150.5,384.5 C 154.165,384.502 157.165,385.835 159.5,388.5C 156.088,387.958 153.088,386.625 150.5,384.5 Z"/></g>
<g><path style="opacity:0.357" fill="#999b9e" d="M 316.5,381.5 C 312.818,384.008 308.818,386.008 304.5,387.5C 307.587,383.956 311.587,381.956 316.5,381.5 Z"/></g>
<g><path style="opacity:0.357" fill="#b4b6b9" d="M 331.5,386.5 C 333.749,387.08 335.415,388.413 336.5,390.5C 334.251,389.92 332.585,388.587 331.5,386.5 Z"/></g>
<g><path style="opacity:0.337" fill="#b4b9b7" d="M 336.5,390.5 C 338.404,390.738 339.738,391.738 340.5,393.5C 338.596,393.262 337.262,392.262 336.5,390.5 Z"/></g>
<g><path style="opacity:0.012" fill="#979798" d="M 289.5,394.5 C 284.717,396.314 280.05,398.314 275.5,400.5C 275.5,399.5 275.5,398.5 275.5,397.5C 279.789,396.608 283.956,395.275 288,393.5C 288.765,393.57 289.265,393.903 289.5,394.5 Z"/></g>
<g><path style="opacity:0.027" fill="#87888a" d="M 340.5,393.5 C 343.078,395.589 346.078,396.923 349.5,397.5C 350.584,397.315 351.584,396.982 352.5,396.5C 352.833,397.167 353.167,397.833 353.5,398.5C 347.959,399.624 343.626,397.958 340.5,393.5 Z"/></g>
<g><path style="opacity:0.024" fill="#8e8f90" d="M 171.5,393.5 C 176.959,394.264 182.125,395.931 187,398.5C 189.528,405.897 191.028,413.23 191.5,420.5C 189.515,413.561 187.682,406.561 186,399.5C 180.973,397.774 176.14,395.774 171.5,393.5 Z"/></g>
<g><path style="opacity:0.059" fill="#b6b8b8" d="M 270.5,424.5 C 270.228,427.732 268.562,429.732 265.5,430.5C 266.473,427.865 268.14,425.865 270.5,424.5 Z"/></g>
<g><path style="opacity:0.965" fill="#1e262e" d="M 220.5,428.5 C 237.197,428.132 249.864,428.465 258.5,429.5C 238.845,430.53 219.178,430.697 199.5,430C 197.934,429.392 196.6,428.558 195.5,427.5C 195.351,426.448 195.517,425.448 196,424.5C 196.465,425.931 197.299,427.097 198.5,428C 205.826,428.5 213.159,428.666 220.5,428.5 Z"/></g>
<g><path style="opacity:0.078" fill="#5c5d5f" d="M 194.5,427.5 C 194.833,427.5 195.167,427.5 195.5,427.5C 196.6,428.558 197.934,429.392 199.5,430C 219.178,430.697 238.845,430.53 258.5,429.5C 258.5,429.833 258.5,430.167 258.5,430.5C 238.337,431.663 218.004,431.829 197.5,431C 195.574,430.578 194.574,429.411 194.5,427.5 Z"/></g>
</svg>
